<svg version="1.2" xmlns="http://www.w3.org/2000/svg" viewBox="0 0 317 611" width="317" height="611">
    <defs>
        <linearGradient id="P" gradientUnits="userSpaceOnUse"/>
        <linearGradient id="g1" x1="-191.4" y1="531.5" x2="30.6" y2="-34.5" href="#P">
            <stop stop-color="white"/>
            <stop offset=".3" stop-color="white"/>
            <stop offset=".6" stop-color="white"/>
            <stop offset="1" stop-color="white"/>
        </linearGradient>
        <linearGradient id="g2" x1="-27.7" y1="595.8" x2="194.3" y2="29.8" href="#P">
            <stop stop-color="white"/>
            <stop offset=".3" stop-color="white"/>
            <stop offset=".6" stop-color="white"/>
            <stop offset="1" stop-color="white"/>
        </linearGradient>
        <linearGradient id="g3" x1="-211.1" y1="523.8" x2="10.9" y2="-42.2" href="#P">
            <stop stop-color="white"/>
            <stop offset=".3" stop-color="white"/>
            <stop offset=".6" stop-color="white"/>
            <stop offset="1" stop-color="white"/>
        </linearGradient>
        <linearGradient id="g4" x1="-86.2" y1="572.8" x2="135.8" y2="6.8" href="#P">
            <stop stop-color="white"/>
            <stop offset=".3" stop-color="white"/>
            <stop offset=".6" stop-color="white"/>
            <stop offset="1" stop-color="white"/>
        </linearGradient>
    </defs>
    <style>.s0{fill:url(#g1)}.s1{fill:url(#g2)}.s2{fill:url(#g3)}.s3{fill:url(#g4)}</style>
    <path class="s0" d="m1 62.8l92.7 92l1.9 6l-94.6-94z"/>
    <path class="s1" d="m91.9 322.8h-3.9l86-88.1l74.3 73.8l-247.3 245.7v-4l243.3-241.7l-70.2-69.8z"/>
    <path class="s2" d="m140.9 133.7l-2.2 1.8l-135.9-135.1h4z"/>
    <path class="s3" d="m316.8 308.5l-304.2 302.3h-4l304.2-302.3l-139.2-138.4l-149.2 152.7h-3.9l153-156.7z"/>
</svg>