<svg version="1.2" xmlns="http://www.w3.org/2000/svg" viewBox="0 0 519 520" fill="white" width="519" height="520">
<!--    <style>.s0{fill:#0c0b0b}</style>-->
    <path class="s0"
          d="m277.2 368.6v1.6h-33.1v-1.6q4.1-0.3 6.1-1.1q2.1-0.9 3-2.7q1-1.9 1-5.3v-48.9q0-4.4-2.5-6q-2.4-1.7-7.6-2.1v-4.1q7.9-0.4 12.4-2.5q4.5-2.1 7.7-6h3v66.6q0 3.9 0.2 5.8q0.2 1.9 1.1 3.2q0.8 1.3 2.9 2q2 0.7 5.8 1.1z"/>
    <path fill-rule="evenodd" class="s0"
          d="m519.2 259.5l-125.6 125.6l-61.5 61.6l-72.4 72.4l-72.5-72.4l-26-26l-37.3-37.3l-123.9-123.9l241.5-241.4l18.2-18.2l10.8 10.9zm-377.7 69.2l-70.3-70.2l136.8-136.8l6.5-20.3l0.2-0.2l15.2-47.3l-205.6 205.6l105.5 105.5l11.7-36.3zm87.9-173.4l-29.4 93.4h89l21-21.7l-28.3-90.3l-22.1-22l-25.6 25.6zm-81.2 176.1l14.3 14.4l5.7 5.7l91.4 91.4l89.6-89.6l-8.6-27.8l-81 81l-82.7-82.8l-5.7-5.7l-19.9-19.8l-39.6-39.7l77.2-77.1l4.3-13.3l12.9-40.4l-130.8 130.8zm-32.4-72.8l36.5 36.5l34.7-107.8zm243 132.2c-0.1-4.7-0.9-9.7-2.5-15.1l-6.1-19.3l-90.5 90.6l-92.4-92.4l-6.7 21.2c-1.4 4.6-2.2 9-2.4 13c0 1.7 0 3.2 0.1 4.8l30.3 30.3l71.1 71.1l48.1-48.1l23.2-23.2l27.4-27.5c0.2-1.7 0.4-3.5 0.4-5.4zm16.2-63.2l69-69l-81.5-81.4l-26.9 27.7l-24.6 25.3l-18.1 18.6l-28.4 29.4h-73.3l-13.3 42.5l81.8 81.8l73.3-73.3l3.8-3.8l2.8-2.9l-13.9-44.3h-25.3l44.1-45.5l18.3-18.8l44.8 44.7l-41.4 41.4zm119.9-67.9l-226.9-226.9l-13.5 42.5l5.1-5.1l84.4 84.5l-2.2 1.8l-82.2-82.2l-6.9 6.9l-4.8 15.3l-0.7 0.6l-11.5 37.5l23.9-23.8l20.2 20.2l36.1 36.3l11.1 11.2l7.5 23.4l27.9-28.8l85.6 85.5l-72 72.1l11.6 36.3zm-129.8 37.3l38.4-38.4l-40.7-40.6l-17.4 17.8l1.4 4.3z"/>
    <path class="s0" d="m316 167.1l-36.2-36.3l11 11l25 24.9z"/>
</svg>